<?xml version="1.0" standalone="no"?><!DOCTYPE svg PUBLIC "-//W3C//DTD SVG 1.1//EN" "http://www.w3.org/Graphics/SVG/1.1/DTD/svg11.dtd"><svg t="1683775043898" class="icon" viewBox="0 0 1024 1024" version="1.1" xmlns="http://www.w3.org/2000/svg" p-id="2788" xmlns:xlink="http://www.w3.org/1999/xlink" width="200" height="200"><path d="M789.333333 682.666667a42.666667 42.666667 0 0 1 4.992 85.034666L789.333333 768h-554.666666a42.666667 42.666667 0 0 1-4.992-85.034667L234.666667 682.666667h554.666666z m0-213.333334a42.666667 42.666667 0 0 1 4.992 85.034667L789.333333 554.666667h-554.666666a42.666667 42.666667 0 0 1-4.992-85.034667L234.666667 469.333333h554.666666z m0-213.333333a42.666667 42.666667 0 0 1 4.992 85.034667L789.333333 341.333333h-554.666666a42.666667 42.666667 0 0 1-4.992-85.034666L234.666667 256h554.666666z" fill="#aaa" p-id="2789"></path></svg>